#!OML:ASF F:\VICON\USERDATA\INSTALL\rory3\rory3.ASF
:FULLY-SPECIFIED
:DEGREES
97
root -0.002986497039400182 18.030709190670752 57.68469345474066 2.3571997530351823 2.381307067800411 -2.640641616119477
lfemur -27.7372315518504 -4.31493651053815 -15.822056913615182
ltibia 19.476957166225866
lfoot -0.7257206157335414 0.9491471909113707
ltoes -6.206343123955992
rfemur -2.0867988747356847 2.6134584316306024 29.927150926819607
rtibia 35.240905365695205
rfoot -7.032717412781964 -1.0992257587512846
rtoes -5.809035653909291
lowerback 10.579301620112975 -0.22346820646374432 2.79804068760107
upperback -1.3638172854152164 0.012348410202331017 1.562379737467026
thorax -7.106748255601051 -0.046529082353742424 1.1722671128943591
lowerneck -17.604174446921153 -2.8129200636483116 -3.6850286403197767
upperneck 18.89781039512464 -3.280687115493431 2.2815536285996965
head 8.802152386505062 -1.5275863524505475 0.994476257963526
lclavicle -2.260488532450255e-15 6.855648987781633e-16
lhumerus -50.6438278400969 -1.165085277163489 89.23780460280881
lradius 59.48909579711117
lwrist 18.1826839780157
lhand -25.01783447463608 12.558820794652119
lfingers 7.125019999999999
lthumb 1.2056011001175868 42.19637364510882
rclavicle -2.2590732947870818e-15 6.8657420004897955e-16
rhumerus -34.65351860651125 -0.867001689618911 -89.81320836518725
rradius 65.7498093889316
rwrist -0.3461602109645925
rhand -15.813906819792239 30.563252240266532
rfingers 7.125019999999999
rthumb 9.264959996733525 1.7087871643941575
98
root 0.045475646028016924 18.01743865468551 58.032000017648954 2.3092615427312158 2.322558832738025 -2.6304193956781874
lfemur -25.999934536007842 -3.3588260716868303 -16.820280754033355
ltibia 21.71091756730533
lfoot -0.18958686072867525 -1.7047014798742222
ltoes -5.955143314878482
rfemur -3.357645795206274 2.4457991419398057 29.528117503890027
rtibia 39.56668440155261
rfoot -0.8196998335452347 1.026386722515456
rtoes -5.21679081365072
lowerback 10.446301364844844 -0.14387235954403277 2.788105557055488
upperback -1.557512839779877 0.16876768889352345 1.5014048670727438
thorax -7.133911638396896 0.06834929252566369 1.4218122950537562
lowerneck -17.565727467105088 -2.79885962226016 -3.6885168780148883
upperneck 18.9190799148218 -3.266916808970712 2.1712674534633667
head 8.793380462317009 -1.5322823420837188 0.958286242727986
lclavicle -2.2594063263718737e-15 6.863273836166253e-16
lhumerus -50.54823493920257 -0.617256300569399 88.76279550709896
lradius 58.788913033005194
lwrist 17.65147774524597
lhand -24.81836098888392 12.613589979262324
lfingers 7.125019999999999
lthumb 1.3862020875473402 42.34815955371162
rclavicle -2.2596180879533672e-15 6.861922443240175e-16
rhumerus -35.33064514844675 -1.5441185834755933 -89.4856732931486
rradius 64.62995818158295
rwrist 0.8003560677506232
rhand -15.80176692672389 30.519035574533984
rfingers 7.125019999999999
rthumb 9.239285443910587 1.5482020770003093
99
root 0.09110457619582019 18.006918745228997 58.45811747978538 2.1770469923310247 2.3758848143266187 -2.2096904759569
lfemur -23.602046059127556 -3.1164749332705175 -18.054795309390197
ltibia 23.6899280917019
lfoot -0.9636386953336853 -3.4763295469962694
ltoes -5.426755686866437
rfemur -5.241133311954698 2.2378203828941947 28.653876563517418
rtibia 44.29244190693809
rfoot 8.937420614608506 3.161650468775397
rtoes 1.9246243728672239
lowerback 10.398336676856347 -0.0815343766427542 2.4069488551345306
upperback -1.7808742434677824 0.26283214925498455 1.385993915336357
thorax -7.159307109003714 0.14197541638247896 1.7639315066409118
lowerneck -17.510853996574316 -2.768529524149952 -3.688536342037244
upperneck 18.931758806788295 -3.2257851222580847 2.077916173532416
head 8.790443863242473 -1.5186363359264337 0.9384241486084011
lclavicle -2.2589116109370606e-15 6.866784899087926e-16
lhumerus -50.41172499157226 -0.2943221127521358 88.31496275454171
lradius 58.32390457363917
lwrist 17.08048703317148
lhand -24.644384337760066 12.908488118336079
lfingers 7.125019999999999
lthumb 1.517572821269702 42.67328570040719
rclavicle -2.2593151032835884e-15 6.864046211957065e-16
rhumerus -36.353235786328874 -2.434491808530008 -89.00191420953091
rradius 63.4249473564591
rwrist 2.0397612896813624
rhand -15.829541327173208 30.413061369897157
rfingers 7.125019999999999
rthumb 9.245117437922351 1.356552535765352
100
root 0.13522583140495895 17.99265821479207 58.97556228679464 2.0143721558484273 2.106637099596262 -1.8190512691527105
lfemur -20.89861922080309 -3.3202078901938386 -18.99925885810933
ltibia 24.41821750695128
lfoot -3.3028705495783846 -3.7292820278956573
ltoes -4.41582820066381
rfemur -7.8622465438289755 2.40662445031162 27.757624892622776
rtibia 49.3111777950028
rfoot 19.117535226377235 3.803612500822844
rtoes 14.196264769286776
lowerback 10.676065805908415 0.04370493778511397 2.032593862389235
upperback -1.931460327525574 0.4011647471040505 1.2907252024758034
thorax -7.249690632177689 0.24156079882812437 2.0320063205851513
lowerneck -17.46047774427983 -2.7495961912290827 -3.69342681045364
upperneck 18.864586221711274 -3.18936004394912 2.085090002104293
head 8.775496380100877 -1.49398918103574 0.9536289757345523
lclavicle -2.2595716799435135e-15 6.862156486116812e-16
lhumerus -49.960986428742785 -0.613493956989708 88.22701299079671
lradius 58.527439393326844
lwrist 16.671957933661677
lhand -24.554173727230218 13.081511670768256
lfingers 7.125019999999999
lthumb 1.5776105897757753 42.93864080153107
rclavicle -2.259426837985957e-15 6.863262885150433e-16
rhumerus -37.31426937869941 -3.3694754504016444 -88.58558177620183
rradius 62.329468667548326
rwrist 3.017735502300152
rhand -15.885111215175224 30.336215429664037
rfingers 7.125019999999999
rthumb 9.241154890990403 1.1767546227311456
101
root 0.17375708157221004 17.958813279469926 59.631668275178185 1.7601467344010997 2.2630075705244845 -1.2799168609250435
lfemur -17.836452975383526 -3.9547410572592967 -19.96693214232884
ltibia 24.569077167274187
lfoot -5.77002222786184 -3.1294532313983003
ltoes -3.5605536115489462
rfemur -10.530950702012923 2.100918748134959 26.72769108862123
rtibia 54.155655374141546
rfoot 23.466642332516752 1.6658911875839735
rtoes 22.131337545330375
lowerback 11.094402133343415 -0.010422780399977682 1.5843183648398635
upperback -1.8782908430539633 0.2890105257050348 1.239570324676233
thorax -7.319463465759458 0.22277012571388433 2.3348291559460588
lowerneck -17.474766176131705 -2.7295420490169104 -3.674676469795675
upperneck 18.731993128234514 -3.1465295722643387 2.0650504634562505
head 8.737893933744159 -1.4681464445981955 0.9526200605965998
lclavicle -2.260480082594528e-15 6.855772022408408e-16
lhumerus -48.854244521159664 -1.7862299805167279 88.69939489132844
lradius 59.296561630557086
lwrist 16.30878965096422
lhand -24.486674546618875 13.210007330826508
lfingers 7.125019999999999
lthumb 1.5737632233895438 42.971762017026236
rclavicle -2.2600386982863635e-15 6.858973328023357e-16
rhumerus -37.90947809216391 -4.178779335436245 -88.269508700834
rradius 61.310769744083494
rwrist 3.8303469354278534
rhand -16.029691338526177 30.38606265903318
rfingers 7.125019999999999
rthumb 9.210397202088206 1.1864794838907684
102
root 0.20061380658753816 17.89740622843829 60.07496155586242 1.4566607551192878 2.761086509070516 -0.872383958353049
lfemur -15.123841127920027 -4.6393880660403255 -20.70446419781841
ltibia 25.113339211637378
lfoot -7.853123182618313 -2.1960854747030356
ltoes -1.3288996394626436
rfemur -13.111365094983771 1.5356158998399043 25.804416496549425
rtibia 58.324900827708774
rfoot 19.931167784418324 -3.3869639676484544
rtoes 22.86020042296942
lowerback 11.52070257373578 -0.18094423238919732 1.2804898781919327
upperback -1.7487664435829255 0.054477130021629794 1.3013752779727927
thorax -7.361881991111311 0.1318988919082001 2.6165579615497467
lowerneck -17.52848614525466 -2.7303862810103725 -3.660714051833943
upperneck 18.69533248458057 -3.1298412948908902 2.0245669055761844
head 8.739935980179283 -1.459403615151622 0.9349835818758496
lclavicle -2.261240463885442e-15 6.850439554835849e-16
lhumerus -47.15074368226266 -3.0555686515535956 89.20510275961134
lradius 60.08910079884774
lwrist 16.201003379582765
lhand -24.542881290640107 13.292052863052499
lfingers 7.125019999999999
lthumb 1.4780982277296992 42.976390922162636
rclavicle -2.26025783713751e-15 6.857437428089437e-16
rhumerus -38.3176683185777 -5.0171401466475505 -87.91215013883765
rradius 60.61290779559386
rwrist 4.290621906843727
rhand -16.192357845199677 30.47175901689528
rfingers 7.125019999999999
rthumb 9.150442906614824 1.1421364951523616
103
root 0.22438149213090042 17.827329980981784 60.46891806615791 1.0809958618598796 3.3034550370039115 -0.5668218761012058
lfemur -12.782347481928085 -4.983557879142371 -21.293366489622386
ltibia 26.311378117338343
lfoot -9.170438808498591 -1.5193464783592323
ltoes 0.12583266163927487
rfemur -15.762949099999183 1.04955901041772 24.899143784959957
rtibia 61.48540887251802
rfoot 14.052444723218848 -9.575989486639005
rtoes 18.81050925134823
lowerback 11.88711509127764 -0.3476594085797089 0.9851898812875766
upperback -1.5837773503737353 -0.1709314619067348 1.4093969765924221
thorax -7.349154913576378 0.0193530140097512 2.85614141966249
lowerneck -17.62385715088811 -2.7476759918840035 -3.659700886390449
upperneck 18.771931999548688 -3.1450378303665114 2.0144534854463423
head 8.765603452181798 -1.4689334879358609 0.9280344330205944
lclavicle -2.2615401603846455e-15 6.848335422511438e-16
lhumerus -45.2813612631599 -4.039483709542575 89.41558452441693
lradius 60.66779556657654
lwrist 16.250657420945057
lhand -24.738398486227943 13.556015472579258
lfingers 7.125019999999999
lthumb 1.2583300600532568 43.19488388461151
rclavicle -2.2606536918173406e-15 6.854662519146837e-16
rhumerus -38.83472206239388 -5.80025779609721 -87.521977207234
rradius 60.29081240862696
rwrist 4.189362031941419
rhand -16.39492626630712 30.526737761910496
rfingers 7.125019999999999
rthumb 9.018033275304044 0.9435237898817042
